<svg xmlns="http://www.w3.org/2000/svg" fill="none" viewBox="0 0 60.214 40.50632911392405" style="max-height: 500px" width="60.214" height="40.50632911392405">
<path fill="black" d="M92.7904 6.97708V17.0053H81.318V6.97708H74.2053V33.2481H81.318V23.0258H92.7904V33.2481H99.9077V6.97708H92.7904Z"/>
<path fill="black" d="M111.53 21.2123V19.0189C111.53 15.0834 113.651 12.5831 117.965 12.5831H119.234C123.548 12.5831 125.669 15.0834 125.669 19.0189V21.2123C125.669 25.1477 123.548 27.648 119.234 27.648H117.965C113.651 27.648 111.53 25.1477 111.53 21.2123ZM119.234 6.56259H117.965C109.485 6.56259 103.997 11.2969 103.997 19.0189V21.2123C103.997 28.9342 109.485 33.6685 117.965 33.6685H119.234C127.714 33.6685 133.202 28.9342 133.202 21.2123V19.0189C133.202 11.2969 127.714 6.56259 119.234 6.56259Z"/>
<path fill="black" d="M155.877 6.97708V17.0053H144.405V6.97708H137.287V33.2481H144.405V23.0258H155.877V33.2481H162.994V6.97708H155.877Z"/>
<path fill="black" d="M166.476 12.9931H175.638V33.2481H182.755V12.9931H191.916V6.97708H166.476V12.9931Z"/>
<path fill="black" d="M201.04 21.2123V19.0189C201.04 15.0834 203.161 12.5831 207.475 12.5831H208.744C213.058 12.5831 215.179 15.0834 215.179 19.0189V21.2123C215.179 25.1477 213.058 27.648 208.744 27.648H207.475C203.161 27.648 201.04 25.1477 201.04 21.2123ZM208.744 6.56259H207.475C198.995 6.56259 193.507 11.2969 193.507 19.0189V21.2123C193.507 28.9342 198.995 33.6685 207.475 33.6685H208.744C217.224 33.6685 222.712 28.9342 222.712 21.2123V19.0189C222.712 11.2969 217.224 6.56259 208.744 6.56259Z"/>
<path fill="black" d="M245.387 6.97708V17.0053H233.915V6.97708H226.797V33.2481H233.915V23.0258H245.387V33.2481H252.504V6.97708H245.387Z"/>
<path fill="#9B9BFF" d="M0 19.9977L9.99662 0L19.9977 19.9977H0Z" clip-rule="evenodd" fill-rule="evenodd"/>
<path fill="black" d="M10.0001 0L20.0012 19.9977L29.9978 0H10.0001Z" clip-rule="evenodd" fill-rule="evenodd"/>
<path fill="#00ADE5" d="M39.9979 19.9977L49.999 40H29.9967L20.0001 19.9977L29.9967 0L39.9979 19.9977Z" clip-rule="evenodd" fill-rule="evenodd"/>
<path fill="black" d="M39.9959 19.998L49.997 40.0002L59.9937 19.998H39.9959Z" clip-rule="evenodd" fill-rule="evenodd"/>
</svg>